<svg xmlns="http://www.w3.org/2000/svg" width="36.991" height="36.991" viewBox="0 0 36.991 36.991">
  <path id="패스_54" data-name="패스 54" d="M18.5,36.991A18.5,18.5,0,0,1,5.417,5.417,18.5,18.5,0,0,1,31.574,31.574,18.374,18.374,0,0,1,18.5,36.991Zm0-27.127c-.077,0-7.734.006-9.635.516a3.087,3.087,0,0,0-2.18,2.181A32.238,32.238,0,0,0,6.166,18.5a32.244,32.244,0,0,0,.516,5.935,3.09,3.09,0,0,0,2.18,2.181c1.9.509,9.558.515,9.635.515s7.733-.006,9.635-.515a3.09,3.09,0,0,0,2.18-2.181,32.244,32.244,0,0,0,.516-5.935,32.238,32.238,0,0,0-.516-5.936,3.087,3.087,0,0,0-2.18-2.181C26.23,9.87,18.574,9.864,18.5,9.864ZM16.03,22.195V14.8l6.407,3.7-4,2.311-2.4,1.387Z"/>
</svg>
