<svg xmlns="http://www.w3.org/2000/svg" width="36.992" height="36.991" viewBox="0 0 36.992 36.991">
  <path id="패스_53" data-name="패스 53" d="M18.5,36.991A18.5,18.5,0,0,1,5.417,5.417,18.5,18.5,0,1,1,31.574,31.574,18.375,18.375,0,0,1,18.5,36.991ZM7.23,26.942h0a13.969,13.969,0,0,0,21.5-11.769c0-.218,0-.431-.014-.634A9.928,9.928,0,0,0,31.168,12a9.752,9.752,0,0,1-2.821.773,4.914,4.914,0,0,0,2.16-2.716,9.8,9.8,0,0,1-3.118,1.192,4.915,4.915,0,0,0-8.369,4.479A13.989,13.989,0,0,1,8.9,10.593a4.915,4.915,0,0,0,1.52,6.557,4.917,4.917,0,0,1-2.225-.615c0,.021,0,.041,0,.063a4.921,4.921,0,0,0,3.94,4.814,4.91,4.91,0,0,1-2.218.085A4.912,4.912,0,0,0,14.5,24.908a9.8,9.8,0,0,1-6.1,2.1A9.942,9.942,0,0,1,7.23,26.942Z"/>
</svg>
