<svg xmlns="http://www.w3.org/2000/svg" width="36.991" height="36.991" viewBox="0 0 36.991 36.991">
  <path id="패스_56" data-name="패스 56" d="M18.5,36.991A18.5,18.5,0,0,1,5.417,5.417,18.5,18.5,0,0,1,31.574,31.574,18.374,18.374,0,0,1,18.5,36.991Zm-8-8.4c.682,0,1.3,0,1.9.01H12.4a.336.336,0,0,0,.249-.067.357.357,0,0,0,.067-.265c-.008-1.828-.007-3.687-.007-5.485V20.048c0-1.879,0-3.821,0-5.73a.353.353,0,0,0-.061-.256.3.3,0,0,0-.22-.061h-.01c-.61.006-1.238.009-1.919.009-.639,0-1.321,0-2.086-.008-.2,0-.253.059-.253.262.006,4.788.005,9.521,0,14.067,0,.211.057.269.264.269h.01C9.229,28.595,9.88,28.592,10.492,28.592Zm7.343,0c.676,0,1.345,0,1.989.009h.009a.311.311,0,0,0,.23-.061.327.327,0,0,0,.061-.243c-.006-1.608-.006-3.243-.006-4.824v-.012q0-1.128,0-2.257a9,9,0,0,1,.069-1.14,2.45,2.45,0,0,1,2.571-2.443c.056,0,.112,0,.166,0A2.012,2.012,0,0,1,25,19.209a6.653,6.653,0,0,1,.212,1.81c.007,2.214.007,4.6,0,7.294a.312.312,0,0,0,.057.231.294.294,0,0,0,.215.058h.008c.663-.006,1.341-.009,2.014-.009.638,0,1.289,0,1.935.008h.01a.312.312,0,0,0,.231-.061.325.325,0,0,0,.061-.239c0-1.314,0-2.647,0-3.936,0-1.221,0-2.484,0-3.729a13.324,13.324,0,0,0-.4-3.595A4.177,4.177,0,0,0,26.36,13.9a8.036,8.036,0,0,0-2.149-.262h-.046a4.775,4.775,0,0,0-3.372,1.349,6.771,6.771,0,0,0-.556.617c-.1.119-.2.243-.31.364,0-.157,0-.318,0-.472,0-.4,0-.8.006-1.206a.306.306,0,0,0-.056-.231A.3.3,0,0,0,19.652,14h-.008c-.587.005-1.209.008-1.848.008-.609,0-1.24,0-1.93-.007h-.01a.231.231,0,0,0-.284.284c.006,4.362.006,8.956,0,14.044,0,.21.059.271.264.271h.009C16.526,28.6,17.195,28.593,17.835,28.593ZM10.452,6.739h0a2.627,2.627,0,1,0-.005,5.254,2.627,2.627,0,1,0,.007-5.254Z"/>
</svg>
